<mxfile host="app.diagrams.net" modified="2024-02-27T16:50:00.555Z" agent="Mozilla/5.0 (Windows NT 10.0; Win64; x64) AppleWebKit/537.36 (KHTML, like Gecko) Chrome/121.0.0.0 Safari/537.36 OPR/107.0.0.0" etag="p11xJlkG3g8crcDou-Bx" version="23.1.7" type="device">
  <diagram name="Page-1" id="0ZyuKpbofPeOFYSGx-PF">
    <mxGraphModel dx="1391" dy="1906" grid="1" gridSize="10" guides="1" tooltips="1" connect="1" arrows="1" fold="1" page="1" pageScale="1" pageWidth="850" pageHeight="1100" math="0" shadow="0">
      <root>
        <mxCell id="0" />
        <mxCell id="1" parent="0" />
        <mxCell id="tl55J5YGTpT1w8eIhRAH-3" style="edgeStyle=orthogonalEdgeStyle;rounded=0;orthogonalLoop=1;jettySize=auto;html=1;exitX=0.5;exitY=1;exitDx=0;exitDy=0;entryX=0.5;entryY=0;entryDx=0;entryDy=0;" edge="1" parent="1" source="tl55J5YGTpT1w8eIhRAH-1" target="tl55J5YGTpT1w8eIhRAH-2">
          <mxGeometry relative="1" as="geometry" />
        </mxCell>
        <mxCell id="tl55J5YGTpT1w8eIhRAH-1" value="Program Run" style="ellipse;whiteSpace=wrap;html=1;" vertex="1" parent="1">
          <mxGeometry x="10" y="10" width="110" height="60" as="geometry" />
        </mxCell>
        <mxCell id="tl55J5YGTpT1w8eIhRAH-8" value="" style="edgeStyle=orthogonalEdgeStyle;rounded=0;orthogonalLoop=1;jettySize=auto;html=1;" edge="1" parent="1" source="tl55J5YGTpT1w8eIhRAH-2" target="tl55J5YGTpT1w8eIhRAH-7">
          <mxGeometry relative="1" as="geometry" />
        </mxCell>
        <mxCell id="tl55J5YGTpT1w8eIhRAH-2" value="Run Greet Function, Greet User" style="rounded=0;whiteSpace=wrap;html=1;" vertex="1" parent="1">
          <mxGeometry x="10" y="100" width="110" height="40" as="geometry" />
        </mxCell>
        <mxCell id="tl55J5YGTpT1w8eIhRAH-10" value="" style="edgeStyle=orthogonalEdgeStyle;rounded=0;orthogonalLoop=1;jettySize=auto;html=1;" edge="1" parent="1" source="tl55J5YGTpT1w8eIhRAH-7" target="tl55J5YGTpT1w8eIhRAH-9">
          <mxGeometry relative="1" as="geometry" />
        </mxCell>
        <mxCell id="tl55J5YGTpT1w8eIhRAH-11" value="No" style="edgeLabel;html=1;align=center;verticalAlign=middle;resizable=0;points=[];" vertex="1" connectable="0" parent="tl55J5YGTpT1w8eIhRAH-10">
          <mxGeometry x="-0.8965" y="-1" relative="1" as="geometry">
            <mxPoint as="offset" />
          </mxGeometry>
        </mxCell>
        <mxCell id="tl55J5YGTpT1w8eIhRAH-13" value="" style="edgeStyle=orthogonalEdgeStyle;rounded=0;orthogonalLoop=1;jettySize=auto;html=1;" edge="1" parent="1" source="tl55J5YGTpT1w8eIhRAH-7" target="tl55J5YGTpT1w8eIhRAH-12">
          <mxGeometry relative="1" as="geometry" />
        </mxCell>
        <mxCell id="tl55J5YGTpT1w8eIhRAH-14" value="Yes" style="edgeLabel;html=1;align=center;verticalAlign=middle;resizable=0;points=[];" vertex="1" connectable="0" parent="tl55J5YGTpT1w8eIhRAH-13">
          <mxGeometry x="-0.6443" y="3" relative="1" as="geometry">
            <mxPoint as="offset" />
          </mxGeometry>
        </mxCell>
        <mxCell id="tl55J5YGTpT1w8eIhRAH-7" value="Ask user if they want to try program" style="rounded=0;whiteSpace=wrap;html=1;" vertex="1" parent="1">
          <mxGeometry x="10" y="170" width="110" height="40" as="geometry" />
        </mxCell>
        <mxCell id="tl55J5YGTpT1w8eIhRAH-9" value="Goodbye Function&lt;br&gt;Quit &amp;amp; Save Files" style="rounded=0;whiteSpace=wrap;html=1;" vertex="1" parent="1">
          <mxGeometry x="10" y="960" width="110" height="40" as="geometry" />
        </mxCell>
        <mxCell id="tl55J5YGTpT1w8eIhRAH-34" style="edgeStyle=orthogonalEdgeStyle;rounded=0;orthogonalLoop=1;jettySize=auto;html=1;exitX=0.5;exitY=0;exitDx=0;exitDy=0;entryX=0;entryY=0.5;entryDx=0;entryDy=0;" edge="1" parent="1" source="tl55J5YGTpT1w8eIhRAH-12" target="tl55J5YGTpT1w8eIhRAH-15">
          <mxGeometry relative="1" as="geometry">
            <Array as="points">
              <mxPoint x="195" y="90" />
            </Array>
          </mxGeometry>
        </mxCell>
        <mxCell id="tl55J5YGTpT1w8eIhRAH-12" value="Start mainmenu function" style="rounded=0;whiteSpace=wrap;html=1;" vertex="1" parent="1">
          <mxGeometry x="140" y="100" width="110" height="40" as="geometry" />
        </mxCell>
        <mxCell id="tl55J5YGTpT1w8eIhRAH-18" style="edgeStyle=orthogonalEdgeStyle;rounded=0;orthogonalLoop=1;jettySize=auto;html=1;exitX=1;exitY=0.25;exitDx=0;exitDy=0;entryX=0;entryY=0.5;entryDx=0;entryDy=0;" edge="1" parent="1" source="tl55J5YGTpT1w8eIhRAH-15" target="tl55J5YGTpT1w8eIhRAH-19">
          <mxGeometry relative="1" as="geometry">
            <mxPoint x="430" y="55.0344827586207" as="targetPoint" />
            <Array as="points">
              <mxPoint x="410" y="35" />
            </Array>
          </mxGeometry>
        </mxCell>
        <mxCell id="tl55J5YGTpT1w8eIhRAH-20" value="1" style="edgeLabel;html=1;align=center;verticalAlign=middle;resizable=0;points=[];" vertex="1" connectable="0" parent="tl55J5YGTpT1w8eIhRAH-18">
          <mxGeometry x="-0.5477" y="-1" relative="1" as="geometry">
            <mxPoint x="14" y="-4" as="offset" />
          </mxGeometry>
        </mxCell>
        <mxCell id="tl55J5YGTpT1w8eIhRAH-23" value="" style="edgeStyle=orthogonalEdgeStyle;rounded=0;orthogonalLoop=1;jettySize=auto;html=1;" edge="1" parent="1" source="tl55J5YGTpT1w8eIhRAH-15" target="tl55J5YGTpT1w8eIhRAH-22">
          <mxGeometry relative="1" as="geometry">
            <Array as="points">
              <mxPoint x="430" y="70" />
              <mxPoint x="430" y="70" />
            </Array>
          </mxGeometry>
        </mxCell>
        <mxCell id="tl55J5YGTpT1w8eIhRAH-24" value="2" style="edgeLabel;html=1;align=center;verticalAlign=middle;resizable=0;points=[];" vertex="1" connectable="0" parent="tl55J5YGTpT1w8eIhRAH-23">
          <mxGeometry x="-0.2469" relative="1" as="geometry">
            <mxPoint x="-4" as="offset" />
          </mxGeometry>
        </mxCell>
        <mxCell id="tl55J5YGTpT1w8eIhRAH-27" value="" style="edgeStyle=orthogonalEdgeStyle;rounded=0;orthogonalLoop=1;jettySize=auto;html=1;entryX=0;entryY=0.5;entryDx=0;entryDy=0;" edge="1" parent="1" target="tl55J5YGTpT1w8eIhRAH-26">
          <mxGeometry relative="1" as="geometry">
            <mxPoint x="380" y="100" as="sourcePoint" />
          </mxGeometry>
        </mxCell>
        <mxCell id="tl55J5YGTpT1w8eIhRAH-28" value="3" style="edgeLabel;html=1;align=center;verticalAlign=middle;resizable=0;points=[];" vertex="1" connectable="0" parent="tl55J5YGTpT1w8eIhRAH-27">
          <mxGeometry x="0.2365" y="2" relative="1" as="geometry">
            <mxPoint x="-4" y="2" as="offset" />
          </mxGeometry>
        </mxCell>
        <mxCell id="tl55J5YGTpT1w8eIhRAH-31" value="" style="edgeStyle=orthogonalEdgeStyle;rounded=0;orthogonalLoop=1;jettySize=auto;html=1;" edge="1" parent="1" source="tl55J5YGTpT1w8eIhRAH-15" target="tl55J5YGTpT1w8eIhRAH-30">
          <mxGeometry relative="1" as="geometry">
            <Array as="points">
              <mxPoint x="450" y="135" />
              <mxPoint x="450" y="135" />
            </Array>
          </mxGeometry>
        </mxCell>
        <mxCell id="tl55J5YGTpT1w8eIhRAH-32" value="4" style="edgeLabel;html=1;align=center;verticalAlign=middle;resizable=0;points=[];" vertex="1" connectable="0" parent="tl55J5YGTpT1w8eIhRAH-31">
          <mxGeometry x="-0.091" relative="1" as="geometry">
            <mxPoint x="-8" as="offset" />
          </mxGeometry>
        </mxCell>
        <mxCell id="tl55J5YGTpT1w8eIhRAH-35" style="edgeStyle=orthogonalEdgeStyle;rounded=0;orthogonalLoop=1;jettySize=auto;html=1;exitX=0.5;exitY=1;exitDx=0;exitDy=0;entryX=1;entryY=0.5;entryDx=0;entryDy=0;" edge="1" parent="1" source="tl55J5YGTpT1w8eIhRAH-15" target="tl55J5YGTpT1w8eIhRAH-9">
          <mxGeometry relative="1" as="geometry" />
        </mxCell>
        <mxCell id="tl55J5YGTpT1w8eIhRAH-36" value="5." style="edgeLabel;html=1;align=center;verticalAlign=middle;resizable=0;points=[];" vertex="1" connectable="0" parent="tl55J5YGTpT1w8eIhRAH-35">
          <mxGeometry x="-0.9153" y="-2" relative="1" as="geometry">
            <mxPoint x="2" y="-5" as="offset" />
          </mxGeometry>
        </mxCell>
        <mxCell id="tl55J5YGTpT1w8eIhRAH-15" value="display options for user to pick&lt;br&gt;1. Pick Shelter&lt;br&gt;2. Add Pet&lt;br&gt;3. View Shelter&lt;br&gt;4. Longest Pet in Shelter&lt;br&gt;5. Done" style="rounded=0;whiteSpace=wrap;html=1;" vertex="1" parent="1">
          <mxGeometry x="300" y="20" width="110" height="140" as="geometry" />
        </mxCell>
        <mxCell id="tl55J5YGTpT1w8eIhRAH-38" value="" style="edgeStyle=orthogonalEdgeStyle;rounded=0;orthogonalLoop=1;jettySize=auto;html=1;" edge="1" parent="1" source="tl55J5YGTpT1w8eIhRAH-19" target="tl55J5YGTpT1w8eIhRAH-37">
          <mxGeometry relative="1" as="geometry" />
        </mxCell>
        <mxCell id="tl55J5YGTpT1w8eIhRAH-19" value="Shelter function" style="rounded=0;whiteSpace=wrap;html=1;" vertex="1" parent="1">
          <mxGeometry x="460" y="20" width="120" height="30" as="geometry" />
        </mxCell>
        <mxCell id="tl55J5YGTpT1w8eIhRAH-79" style="edgeStyle=orthogonalEdgeStyle;rounded=0;orthogonalLoop=1;jettySize=auto;html=1;entryX=0.5;entryY=0;entryDx=0;entryDy=0;" edge="1" parent="1" source="tl55J5YGTpT1w8eIhRAH-22" target="tl55J5YGTpT1w8eIhRAH-78">
          <mxGeometry relative="1" as="geometry" />
        </mxCell>
        <mxCell id="tl55J5YGTpT1w8eIhRAH-22" value="Add Pet function" style="whiteSpace=wrap;html=1;rounded=0;" vertex="1" parent="1">
          <mxGeometry x="460" y="60" width="120" height="20" as="geometry" />
        </mxCell>
        <mxCell id="tl55J5YGTpT1w8eIhRAH-80" style="edgeStyle=orthogonalEdgeStyle;rounded=0;orthogonalLoop=1;jettySize=auto;html=1;entryX=0;entryY=0.5;entryDx=0;entryDy=0;" edge="1" parent="1" source="tl55J5YGTpT1w8eIhRAH-26" target="tl55J5YGTpT1w8eIhRAH-78">
          <mxGeometry relative="1" as="geometry" />
        </mxCell>
        <mxCell id="tl55J5YGTpT1w8eIhRAH-26" value="View Shelter function" style="whiteSpace=wrap;html=1;rounded=0;" vertex="1" parent="1">
          <mxGeometry x="460" y="90" width="120" height="20" as="geometry" />
        </mxCell>
        <mxCell id="tl55J5YGTpT1w8eIhRAH-82" style="edgeStyle=orthogonalEdgeStyle;rounded=0;orthogonalLoop=1;jettySize=auto;html=1;entryX=0.5;entryY=1;entryDx=0;entryDy=0;" edge="1" parent="1" source="tl55J5YGTpT1w8eIhRAH-30" target="tl55J5YGTpT1w8eIhRAH-78">
          <mxGeometry relative="1" as="geometry" />
        </mxCell>
        <mxCell id="tl55J5YGTpT1w8eIhRAH-30" value="4. Longest Pet in Shelter Function" style="whiteSpace=wrap;html=1;rounded=0;" vertex="1" parent="1">
          <mxGeometry x="460" y="120" width="120" height="30" as="geometry" />
        </mxCell>
        <mxCell id="tl55J5YGTpT1w8eIhRAH-43" style="edgeStyle=orthogonalEdgeStyle;rounded=0;orthogonalLoop=1;jettySize=auto;html=1;exitX=1;exitY=0.5;exitDx=0;exitDy=0;entryX=0;entryY=0.5;entryDx=0;entryDy=0;" edge="1" parent="1" source="tl55J5YGTpT1w8eIhRAH-37" target="tl55J5YGTpT1w8eIhRAH-42">
          <mxGeometry relative="1" as="geometry" />
        </mxCell>
        <mxCell id="tl55J5YGTpT1w8eIhRAH-37" value="Prompt user for Shelter" style="rounded=0;whiteSpace=wrap;html=1;" vertex="1" parent="1">
          <mxGeometry x="610" y="20" width="120" height="30" as="geometry" />
        </mxCell>
        <mxCell id="tl55J5YGTpT1w8eIhRAH-46" value="" style="edgeStyle=orthogonalEdgeStyle;rounded=0;orthogonalLoop=1;jettySize=auto;html=1;" edge="1" parent="1" source="tl55J5YGTpT1w8eIhRAH-42" target="tl55J5YGTpT1w8eIhRAH-45">
          <mxGeometry relative="1" as="geometry" />
        </mxCell>
        <mxCell id="tl55J5YGTpT1w8eIhRAH-47" value="No" style="edgeLabel;html=1;align=center;verticalAlign=middle;resizable=0;points=[];" vertex="1" connectable="0" parent="tl55J5YGTpT1w8eIhRAH-46">
          <mxGeometry x="0.0713" y="-3" relative="1" as="geometry">
            <mxPoint as="offset" />
          </mxGeometry>
        </mxCell>
        <mxCell id="tl55J5YGTpT1w8eIhRAH-51" value="" style="edgeStyle=orthogonalEdgeStyle;rounded=0;orthogonalLoop=1;jettySize=auto;html=1;" edge="1" parent="1" source="tl55J5YGTpT1w8eIhRAH-42" target="tl55J5YGTpT1w8eIhRAH-50">
          <mxGeometry relative="1" as="geometry" />
        </mxCell>
        <mxCell id="tl55J5YGTpT1w8eIhRAH-52" value="Yes" style="edgeLabel;html=1;align=center;verticalAlign=middle;resizable=0;points=[];" vertex="1" connectable="0" parent="tl55J5YGTpT1w8eIhRAH-51">
          <mxGeometry x="-0.1966" y="3" relative="1" as="geometry">
            <mxPoint as="offset" />
          </mxGeometry>
        </mxCell>
        <mxCell id="tl55J5YGTpT1w8eIhRAH-42" value="Does shelter exist?" style="rhombus;whiteSpace=wrap;html=1;" vertex="1" parent="1">
          <mxGeometry x="750" y="-5" width="80" height="80" as="geometry" />
        </mxCell>
        <mxCell id="tl55J5YGTpT1w8eIhRAH-71" style="edgeStyle=orthogonalEdgeStyle;rounded=0;orthogonalLoop=1;jettySize=auto;html=1;exitX=0.5;exitY=0;exitDx=0;exitDy=0;entryX=0.5;entryY=1;entryDx=0;entryDy=0;" edge="1" parent="1" source="tl55J5YGTpT1w8eIhRAH-45" target="tl55J5YGTpT1w8eIhRAH-69">
          <mxGeometry relative="1" as="geometry" />
        </mxCell>
        <mxCell id="tl55J5YGTpT1w8eIhRAH-45" value="Ask user to create a new shelter name" style="whiteSpace=wrap;html=1;" vertex="1" parent="1">
          <mxGeometry x="730" y="-100" width="120" height="60" as="geometry" />
        </mxCell>
        <mxCell id="tl55J5YGTpT1w8eIhRAH-54" value="" style="edgeStyle=orthogonalEdgeStyle;rounded=0;orthogonalLoop=1;jettySize=auto;html=1;" edge="1" parent="1" source="tl55J5YGTpT1w8eIhRAH-50" target="tl55J5YGTpT1w8eIhRAH-53">
          <mxGeometry relative="1" as="geometry" />
        </mxCell>
        <mxCell id="tl55J5YGTpT1w8eIhRAH-50" value="Ask user shelter name" style="whiteSpace=wrap;html=1;" vertex="1" parent="1">
          <mxGeometry x="890" y="5" width="120" height="60" as="geometry" />
        </mxCell>
        <mxCell id="tl55J5YGTpT1w8eIhRAH-57" value="" style="edgeStyle=orthogonalEdgeStyle;rounded=0;orthogonalLoop=1;jettySize=auto;html=1;" edge="1" parent="1" source="tl55J5YGTpT1w8eIhRAH-53" target="tl55J5YGTpT1w8eIhRAH-56">
          <mxGeometry relative="1" as="geometry" />
        </mxCell>
        <mxCell id="tl55J5YGTpT1w8eIhRAH-62" value="Yes" style="edgeLabel;html=1;align=center;verticalAlign=middle;resizable=0;points=[];" vertex="1" connectable="0" parent="tl55J5YGTpT1w8eIhRAH-57">
          <mxGeometry x="-0.6012" y="1" relative="1" as="geometry">
            <mxPoint as="offset" />
          </mxGeometry>
        </mxCell>
        <mxCell id="tl55J5YGTpT1w8eIhRAH-64" value="" style="edgeStyle=orthogonalEdgeStyle;rounded=0;orthogonalLoop=1;jettySize=auto;html=1;" edge="1" parent="1" source="tl55J5YGTpT1w8eIhRAH-53" target="tl55J5YGTpT1w8eIhRAH-63">
          <mxGeometry relative="1" as="geometry" />
        </mxCell>
        <mxCell id="tl55J5YGTpT1w8eIhRAH-65" value="No" style="edgeLabel;html=1;align=center;verticalAlign=middle;resizable=0;points=[];" vertex="1" connectable="0" parent="tl55J5YGTpT1w8eIhRAH-64">
          <mxGeometry x="-0.3805" y="2" relative="1" as="geometry">
            <mxPoint as="offset" />
          </mxGeometry>
        </mxCell>
        <mxCell id="tl55J5YGTpT1w8eIhRAH-53" value="Does shelter exist?" style="rhombus;whiteSpace=wrap;html=1;" vertex="1" parent="1">
          <mxGeometry x="1050" y="-5" width="80" height="80" as="geometry" />
        </mxCell>
        <mxCell id="tl55J5YGTpT1w8eIhRAH-59" style="edgeStyle=orthogonalEdgeStyle;rounded=0;orthogonalLoop=1;jettySize=auto;html=1;exitX=0.5;exitY=0;exitDx=0;exitDy=0;entryX=0.5;entryY=1;entryDx=0;entryDy=0;" edge="1" parent="1" source="tl55J5YGTpT1w8eIhRAH-56" target="tl55J5YGTpT1w8eIhRAH-58">
          <mxGeometry relative="1" as="geometry" />
        </mxCell>
        <mxCell id="tl55J5YGTpT1w8eIhRAH-56" value="Indicate to user shelter exists" style="whiteSpace=wrap;html=1;" vertex="1" parent="1">
          <mxGeometry x="1030" y="-100" width="120" height="60" as="geometry" />
        </mxCell>
        <mxCell id="tl55J5YGTpT1w8eIhRAH-61" value="" style="edgeStyle=orthogonalEdgeStyle;rounded=0;orthogonalLoop=1;jettySize=auto;html=1;" edge="1" parent="1" source="tl55J5YGTpT1w8eIhRAH-58" target="tl55J5YGTpT1w8eIhRAH-60">
          <mxGeometry relative="1" as="geometry" />
        </mxCell>
        <mxCell id="tl55J5YGTpT1w8eIhRAH-58" value="Place pets in shelter into an array" style="shape=parallelogram;perimeter=parallelogramPerimeter;whiteSpace=wrap;html=1;fixedSize=1;" vertex="1" parent="1">
          <mxGeometry x="1030" y="-160" width="120" height="40" as="geometry" />
        </mxCell>
        <mxCell id="tl55J5YGTpT1w8eIhRAH-75" style="edgeStyle=orthogonalEdgeStyle;rounded=0;orthogonalLoop=1;jettySize=auto;html=1;entryX=0.5;entryY=0;entryDx=0;entryDy=0;" edge="1" parent="1" source="tl55J5YGTpT1w8eIhRAH-60" target="tl55J5YGTpT1w8eIhRAH-15">
          <mxGeometry relative="1" as="geometry">
            <Array as="points">
              <mxPoint x="1090" y="-250" />
              <mxPoint x="355" y="-250" />
            </Array>
          </mxGeometry>
        </mxCell>
        <mxCell id="tl55J5YGTpT1w8eIhRAH-60" value="Increment days in shelter for existing pets" style="shape=parallelogram;perimeter=parallelogramPerimeter;whiteSpace=wrap;html=1;fixedSize=1;" vertex="1" parent="1">
          <mxGeometry x="1030" y="-220" width="120" height="40" as="geometry" />
        </mxCell>
        <mxCell id="tl55J5YGTpT1w8eIhRAH-77" style="edgeStyle=orthogonalEdgeStyle;rounded=0;orthogonalLoop=1;jettySize=auto;html=1;entryX=0.25;entryY=0;entryDx=0;entryDy=0;" edge="1" parent="1" source="tl55J5YGTpT1w8eIhRAH-63" target="tl55J5YGTpT1w8eIhRAH-15">
          <mxGeometry relative="1" as="geometry">
            <Array as="points">
              <mxPoint x="1250" y="-310" />
              <mxPoint x="328" y="-310" />
            </Array>
          </mxGeometry>
        </mxCell>
        <mxCell id="tl55J5YGTpT1w8eIhRAH-63" value="Tell user shelter does not exist" style="whiteSpace=wrap;html=1;" vertex="1" parent="1">
          <mxGeometry x="1190" y="5" width="120" height="60" as="geometry" />
        </mxCell>
        <mxCell id="tl55J5YGTpT1w8eIhRAH-73" value="" style="edgeStyle=orthogonalEdgeStyle;rounded=0;orthogonalLoop=1;jettySize=auto;html=1;" edge="1" parent="1" source="tl55J5YGTpT1w8eIhRAH-69" target="tl55J5YGTpT1w8eIhRAH-72">
          <mxGeometry relative="1" as="geometry" />
        </mxCell>
        <mxCell id="tl55J5YGTpT1w8eIhRAH-69" value="Create new shelter file" style="shape=parallelogram;perimeter=parallelogramPerimeter;whiteSpace=wrap;html=1;fixedSize=1;" vertex="1" parent="1">
          <mxGeometry x="730" y="-170" width="120" height="40" as="geometry" />
        </mxCell>
        <mxCell id="tl55J5YGTpT1w8eIhRAH-76" style="edgeStyle=orthogonalEdgeStyle;rounded=0;orthogonalLoop=1;jettySize=auto;html=1;exitX=0;exitY=0.5;exitDx=0;exitDy=0;entryX=0.75;entryY=0;entryDx=0;entryDy=0;" edge="1" parent="1" source="tl55J5YGTpT1w8eIhRAH-72" target="tl55J5YGTpT1w8eIhRAH-15">
          <mxGeometry relative="1" as="geometry" />
        </mxCell>
        <mxCell id="tl55J5YGTpT1w8eIhRAH-72" value="Open new shelter&amp;nbsp;&lt;br&gt;file" style="shape=parallelogram;perimeter=parallelogramPerimeter;whiteSpace=wrap;html=1;fixedSize=1;" vertex="1" parent="1">
          <mxGeometry x="730" y="-230" width="120" height="40" as="geometry" />
        </mxCell>
        <mxCell id="tl55J5YGTpT1w8eIhRAH-87" value="" style="edgeStyle=orthogonalEdgeStyle;rounded=0;orthogonalLoop=1;jettySize=auto;html=1;" edge="1" parent="1" source="tl55J5YGTpT1w8eIhRAH-78" target="tl55J5YGTpT1w8eIhRAH-86">
          <mxGeometry relative="1" as="geometry" />
        </mxCell>
        <mxCell id="tl55J5YGTpT1w8eIhRAH-88" value="No" style="edgeLabel;html=1;align=center;verticalAlign=middle;resizable=0;points=[];" vertex="1" connectable="0" parent="tl55J5YGTpT1w8eIhRAH-87">
          <mxGeometry x="0.1121" y="1" relative="1" as="geometry">
            <mxPoint as="offset" />
          </mxGeometry>
        </mxCell>
        <mxCell id="tl55J5YGTpT1w8eIhRAH-91" style="edgeStyle=orthogonalEdgeStyle;rounded=0;orthogonalLoop=1;jettySize=auto;html=1;entryX=0;entryY=0.5;entryDx=0;entryDy=0;" edge="1" parent="1" source="tl55J5YGTpT1w8eIhRAH-78" target="tl55J5YGTpT1w8eIhRAH-90">
          <mxGeometry relative="1" as="geometry" />
        </mxCell>
        <mxCell id="tl55J5YGTpT1w8eIhRAH-92" value="Yes" style="edgeLabel;html=1;align=center;verticalAlign=middle;resizable=0;points=[];" vertex="1" connectable="0" parent="tl55J5YGTpT1w8eIhRAH-91">
          <mxGeometry x="-0.0418" relative="1" as="geometry">
            <mxPoint as="offset" />
          </mxGeometry>
        </mxCell>
        <mxCell id="tl55J5YGTpT1w8eIhRAH-78" value="Did user pick shelter?" style="rhombus;whiteSpace=wrap;html=1;" vertex="1" parent="1">
          <mxGeometry x="630" y="160" width="80" height="80" as="geometry" />
        </mxCell>
        <mxCell id="tl55J5YGTpT1w8eIhRAH-89" style="edgeStyle=orthogonalEdgeStyle;rounded=0;orthogonalLoop=1;jettySize=auto;html=1;entryX=0.75;entryY=1;entryDx=0;entryDy=0;" edge="1" parent="1" source="tl55J5YGTpT1w8eIhRAH-86" target="tl55J5YGTpT1w8eIhRAH-15">
          <mxGeometry relative="1" as="geometry">
            <Array as="points">
              <mxPoint x="850" y="300" />
              <mxPoint x="383" y="300" />
            </Array>
          </mxGeometry>
        </mxCell>
        <mxCell id="tl55J5YGTpT1w8eIhRAH-86" value="Tell user to pick shelter" style="whiteSpace=wrap;html=1;" vertex="1" parent="1">
          <mxGeometry x="790" y="210" width="120" height="60" as="geometry" />
        </mxCell>
        <mxCell id="tl55J5YGTpT1w8eIhRAH-94" value="" style="edgeStyle=orthogonalEdgeStyle;rounded=0;orthogonalLoop=1;jettySize=auto;html=1;" edge="1" parent="1" source="tl55J5YGTpT1w8eIhRAH-90" target="tl55J5YGTpT1w8eIhRAH-93">
          <mxGeometry relative="1" as="geometry" />
        </mxCell>
        <mxCell id="tl55J5YGTpT1w8eIhRAH-95" value="Add pet function" style="edgeLabel;html=1;align=center;verticalAlign=middle;resizable=0;points=[];" vertex="1" connectable="0" parent="tl55J5YGTpT1w8eIhRAH-94">
          <mxGeometry x="-0.2844" y="-1" relative="1" as="geometry">
            <mxPoint x="34" y="-1" as="offset" />
          </mxGeometry>
        </mxCell>
        <mxCell id="tl55J5YGTpT1w8eIhRAH-97" value="" style="edgeStyle=orthogonalEdgeStyle;rounded=0;orthogonalLoop=1;jettySize=auto;html=1;" edge="1" parent="1" source="tl55J5YGTpT1w8eIhRAH-90" target="tl55J5YGTpT1w8eIhRAH-96">
          <mxGeometry relative="1" as="geometry">
            <Array as="points">
              <mxPoint x="930" y="130" />
              <mxPoint x="930" y="220" />
            </Array>
          </mxGeometry>
        </mxCell>
        <mxCell id="tl55J5YGTpT1w8eIhRAH-98" value="View Shelter" style="edgeLabel;html=1;align=center;verticalAlign=middle;resizable=0;points=[];" vertex="1" connectable="0" parent="tl55J5YGTpT1w8eIhRAH-97">
          <mxGeometry x="0.4856" y="-1" relative="1" as="geometry">
            <mxPoint x="7" y="-1" as="offset" />
          </mxGeometry>
        </mxCell>
        <mxCell id="tl55J5YGTpT1w8eIhRAH-101" value="" style="edgeStyle=orthogonalEdgeStyle;rounded=0;orthogonalLoop=1;jettySize=auto;html=1;" edge="1" parent="1" source="tl55J5YGTpT1w8eIhRAH-90" target="tl55J5YGTpT1w8eIhRAH-100">
          <mxGeometry relative="1" as="geometry">
            <Array as="points">
              <mxPoint x="930" y="130" />
              <mxPoint x="930" y="310" />
            </Array>
          </mxGeometry>
        </mxCell>
        <mxCell id="tl55J5YGTpT1w8eIhRAH-102" value="Longest Pet&amp;nbsp;&lt;br&gt;in Shelter" style="edgeLabel;html=1;align=center;verticalAlign=middle;resizable=0;points=[];" vertex="1" connectable="0" parent="tl55J5YGTpT1w8eIhRAH-101">
          <mxGeometry x="0.6394" y="3" relative="1" as="geometry">
            <mxPoint y="3" as="offset" />
          </mxGeometry>
        </mxCell>
        <mxCell id="tl55J5YGTpT1w8eIhRAH-90" value="Grab user input, which option they chose" style="shape=parallelogram;perimeter=parallelogramPerimeter;whiteSpace=wrap;html=1;fixedSize=1;" vertex="1" parent="1">
          <mxGeometry x="790" y="100" width="120" height="60" as="geometry" />
        </mxCell>
        <mxCell id="tl55J5YGTpT1w8eIhRAH-104" value="" style="edgeStyle=orthogonalEdgeStyle;rounded=0;orthogonalLoop=1;jettySize=auto;html=1;" edge="1" parent="1" source="tl55J5YGTpT1w8eIhRAH-93" target="tl55J5YGTpT1w8eIhRAH-103">
          <mxGeometry relative="1" as="geometry" />
        </mxCell>
        <mxCell id="tl55J5YGTpT1w8eIhRAH-93" value="Add pet function" style="whiteSpace=wrap;html=1;" vertex="1" parent="1">
          <mxGeometry x="1030" y="100" width="120" height="60" as="geometry" />
        </mxCell>
        <mxCell id="tl55J5YGTpT1w8eIhRAH-123" value="" style="edgeStyle=orthogonalEdgeStyle;rounded=0;orthogonalLoop=1;jettySize=auto;html=1;" edge="1" parent="1" source="tl55J5YGTpT1w8eIhRAH-96" target="tl55J5YGTpT1w8eIhRAH-122">
          <mxGeometry relative="1" as="geometry" />
        </mxCell>
        <mxCell id="tl55J5YGTpT1w8eIhRAH-96" value="View Shelter function" style="whiteSpace=wrap;html=1;" vertex="1" parent="1">
          <mxGeometry x="1030" y="190" width="120" height="60" as="geometry" />
        </mxCell>
        <mxCell id="tl55J5YGTpT1w8eIhRAH-127" value="" style="edgeStyle=orthogonalEdgeStyle;rounded=0;orthogonalLoop=1;jettySize=auto;html=1;" edge="1" parent="1" source="tl55J5YGTpT1w8eIhRAH-100" target="tl55J5YGTpT1w8eIhRAH-126">
          <mxGeometry relative="1" as="geometry" />
        </mxCell>
        <mxCell id="tl55J5YGTpT1w8eIhRAH-100" value="Longest Pet&amp;nbsp;&lt;br&gt;in Shelter Function" style="whiteSpace=wrap;html=1;" vertex="1" parent="1">
          <mxGeometry x="1030" y="280" width="120" height="60" as="geometry" />
        </mxCell>
        <mxCell id="tl55J5YGTpT1w8eIhRAH-107" value="" style="edgeStyle=orthogonalEdgeStyle;rounded=0;orthogonalLoop=1;jettySize=auto;html=1;" edge="1" parent="1" source="tl55J5YGTpT1w8eIhRAH-103" target="tl55J5YGTpT1w8eIhRAH-106">
          <mxGeometry relative="1" as="geometry">
            <Array as="points">
              <mxPoint x="1320" y="130" />
              <mxPoint x="1320" y="170" />
            </Array>
          </mxGeometry>
        </mxCell>
        <mxCell id="tl55J5YGTpT1w8eIhRAH-108" value="Yes" style="edgeLabel;html=1;align=center;verticalAlign=middle;resizable=0;points=[];" vertex="1" connectable="0" parent="tl55J5YGTpT1w8eIhRAH-107">
          <mxGeometry x="-0.0126" relative="1" as="geometry">
            <mxPoint as="offset" />
          </mxGeometry>
        </mxCell>
        <mxCell id="tl55J5YGTpT1w8eIhRAH-110" value="" style="edgeStyle=orthogonalEdgeStyle;rounded=0;orthogonalLoop=1;jettySize=auto;html=1;" edge="1" parent="1" source="tl55J5YGTpT1w8eIhRAH-103" target="tl55J5YGTpT1w8eIhRAH-109">
          <mxGeometry relative="1" as="geometry" />
        </mxCell>
        <mxCell id="tl55J5YGTpT1w8eIhRAH-111" value="No" style="edgeLabel;html=1;align=center;verticalAlign=middle;resizable=0;points=[];" vertex="1" connectable="0" parent="tl55J5YGTpT1w8eIhRAH-110">
          <mxGeometry x="0.129" y="2" relative="1" as="geometry">
            <mxPoint as="offset" />
          </mxGeometry>
        </mxCell>
        <mxCell id="tl55J5YGTpT1w8eIhRAH-103" value="Does shelter have less than SIZE pets?" style="rhombus;whiteSpace=wrap;html=1;" vertex="1" parent="1">
          <mxGeometry x="1210" y="90" width="80" height="80" as="geometry" />
        </mxCell>
        <mxCell id="tl55J5YGTpT1w8eIhRAH-105" value="VARIABLE&lt;br&gt;&lt;br&gt;INT SIZE = 10" style="shape=hexagon;perimeter=hexagonPerimeter2;whiteSpace=wrap;html=1;fixedSize=1;" vertex="1" parent="1">
          <mxGeometry x="10" y="-110" width="120" height="80" as="geometry" />
        </mxCell>
        <mxCell id="tl55J5YGTpT1w8eIhRAH-115" value="" style="edgeStyle=orthogonalEdgeStyle;rounded=0;orthogonalLoop=1;jettySize=auto;html=1;" edge="1" parent="1" source="tl55J5YGTpT1w8eIhRAH-106" target="tl55J5YGTpT1w8eIhRAH-114">
          <mxGeometry relative="1" as="geometry" />
        </mxCell>
        <mxCell id="tl55J5YGTpT1w8eIhRAH-106" value="Ask user for pet name" style="whiteSpace=wrap;html=1;" vertex="1" parent="1">
          <mxGeometry x="1350" y="140" width="120" height="60" as="geometry" />
        </mxCell>
        <mxCell id="tl55J5YGTpT1w8eIhRAH-109" value="Ask user to pick another shelter" style="whiteSpace=wrap;html=1;" vertex="1" parent="1">
          <mxGeometry x="1350" y="60" width="120" height="60" as="geometry" />
        </mxCell>
        <mxCell id="tl55J5YGTpT1w8eIhRAH-113" style="edgeStyle=orthogonalEdgeStyle;rounded=0;orthogonalLoop=1;jettySize=auto;html=1;entryX=0.147;entryY=-0.001;entryDx=0;entryDy=0;entryPerimeter=0;" edge="1" parent="1" source="tl55J5YGTpT1w8eIhRAH-109" target="tl55J5YGTpT1w8eIhRAH-15">
          <mxGeometry relative="1" as="geometry">
            <Array as="points">
              <mxPoint x="1410" y="-340" />
              <mxPoint x="316" y="-340" />
            </Array>
          </mxGeometry>
        </mxCell>
        <mxCell id="tl55J5YGTpT1w8eIhRAH-117" style="edgeStyle=orthogonalEdgeStyle;rounded=0;orthogonalLoop=1;jettySize=auto;html=1;entryX=0.5;entryY=1;entryDx=0;entryDy=0;" edge="1" parent="1" source="tl55J5YGTpT1w8eIhRAH-114" target="tl55J5YGTpT1w8eIhRAH-116">
          <mxGeometry relative="1" as="geometry" />
        </mxCell>
        <mxCell id="tl55J5YGTpT1w8eIhRAH-114" value="Ask user for pet type &amp;amp; age" style="whiteSpace=wrap;html=1;" vertex="1" parent="1">
          <mxGeometry x="1490" y="140" width="120" height="60" as="geometry" />
        </mxCell>
        <mxCell id="tl55J5YGTpT1w8eIhRAH-120" value="" style="edgeStyle=orthogonalEdgeStyle;rounded=0;orthogonalLoop=1;jettySize=auto;html=1;" edge="1" parent="1" source="tl55J5YGTpT1w8eIhRAH-116" target="tl55J5YGTpT1w8eIhRAH-119">
          <mxGeometry relative="1" as="geometry" />
        </mxCell>
        <mxCell id="tl55J5YGTpT1w8eIhRAH-116" value="Create ID for pet by incrementation of count in array." style="shape=parallelogram;perimeter=parallelogramPerimeter;whiteSpace=wrap;html=1;fixedSize=1;" vertex="1" parent="1">
          <mxGeometry x="1490" y="60" width="120" height="60" as="geometry" />
        </mxCell>
        <mxCell id="tl55J5YGTpT1w8eIhRAH-121" style="edgeStyle=orthogonalEdgeStyle;rounded=0;orthogonalLoop=1;jettySize=auto;html=1;entryX=0;entryY=0;entryDx=0;entryDy=0;" edge="1" parent="1" source="tl55J5YGTpT1w8eIhRAH-119" target="tl55J5YGTpT1w8eIhRAH-15">
          <mxGeometry relative="1" as="geometry">
            <Array as="points">
              <mxPoint x="1550" y="-370" />
              <mxPoint x="300" y="-370" />
            </Array>
          </mxGeometry>
        </mxCell>
        <mxCell id="tl55J5YGTpT1w8eIhRAH-119" value="Add Pet to Shelter Array" style="shape=parallelogram;perimeter=parallelogramPerimeter;whiteSpace=wrap;html=1;fixedSize=1;" vertex="1" parent="1">
          <mxGeometry x="1490" y="-20" width="120" height="60" as="geometry" />
        </mxCell>
        <mxCell id="tl55J5YGTpT1w8eIhRAH-122" value="For loop, i &amp;lt; count print pet name, age, type, id, days in shelter" style="whiteSpace=wrap;html=1;" vertex="1" parent="1">
          <mxGeometry x="1190" y="190" width="120" height="60" as="geometry" />
        </mxCell>
        <mxCell id="tl55J5YGTpT1w8eIhRAH-125" style="edgeStyle=orthogonalEdgeStyle;rounded=0;orthogonalLoop=1;jettySize=auto;html=1;entryX=0.368;entryY=0.002;entryDx=0;entryDy=0;entryPerimeter=0;" edge="1" parent="1" source="tl55J5YGTpT1w8eIhRAH-122" target="tl55J5YGTpT1w8eIhRAH-15">
          <mxGeometry relative="1" as="geometry">
            <Array as="points">
              <mxPoint x="1640" y="220" />
              <mxPoint x="1640" y="-400" />
              <mxPoint x="340" y="-400" />
            </Array>
          </mxGeometry>
        </mxCell>
        <mxCell id="tl55J5YGTpT1w8eIhRAH-132" style="edgeStyle=orthogonalEdgeStyle;rounded=0;orthogonalLoop=1;jettySize=auto;html=1;entryX=0;entryY=0.5;entryDx=0;entryDy=0;" edge="1" parent="1" source="tl55J5YGTpT1w8eIhRAH-126" target="tl55J5YGTpT1w8eIhRAH-131">
          <mxGeometry relative="1" as="geometry" />
        </mxCell>
        <mxCell id="tl55J5YGTpT1w8eIhRAH-126" value="For loop, if the current age is less than count in the pet age in array of pets then set it equal to the count in pet age" style="whiteSpace=wrap;html=1;" vertex="1" parent="1">
          <mxGeometry x="1190" y="280" width="120" height="100" as="geometry" />
        </mxCell>
        <mxCell id="tl55J5YGTpT1w8eIhRAH-133" style="edgeStyle=orthogonalEdgeStyle;rounded=0;orthogonalLoop=1;jettySize=auto;html=1;entryX=0.5;entryY=1;entryDx=0;entryDy=0;" edge="1" parent="1" source="tl55J5YGTpT1w8eIhRAH-131" target="tl55J5YGTpT1w8eIhRAH-126">
          <mxGeometry relative="1" as="geometry">
            <Array as="points">
              <mxPoint x="1390" y="400" />
              <mxPoint x="1250" y="400" />
            </Array>
          </mxGeometry>
        </mxCell>
        <mxCell id="tl55J5YGTpT1w8eIhRAH-134" value="No" style="edgeLabel;html=1;align=center;verticalAlign=middle;resizable=0;points=[];" vertex="1" connectable="0" parent="tl55J5YGTpT1w8eIhRAH-133">
          <mxGeometry x="-0.8329" y="1" relative="1" as="geometry">
            <mxPoint as="offset" />
          </mxGeometry>
        </mxCell>
        <mxCell id="tl55J5YGTpT1w8eIhRAH-137" value="" style="edgeStyle=orthogonalEdgeStyle;rounded=0;orthogonalLoop=1;jettySize=auto;html=1;" edge="1" parent="1" source="tl55J5YGTpT1w8eIhRAH-131" target="tl55J5YGTpT1w8eIhRAH-136">
          <mxGeometry relative="1" as="geometry" />
        </mxCell>
        <mxCell id="tl55J5YGTpT1w8eIhRAH-138" value="Yes" style="edgeLabel;html=1;align=center;verticalAlign=middle;resizable=0;points=[];" vertex="1" connectable="0" parent="tl55J5YGTpT1w8eIhRAH-137">
          <mxGeometry x="-0.1357" y="1" relative="1" as="geometry">
            <mxPoint as="offset" />
          </mxGeometry>
        </mxCell>
        <mxCell id="tl55J5YGTpT1w8eIhRAH-131" value="Reach end of array?" style="rhombus;whiteSpace=wrap;html=1;" vertex="1" parent="1">
          <mxGeometry x="1350" y="290" width="80" height="80" as="geometry" />
        </mxCell>
        <mxCell id="tl55J5YGTpT1w8eIhRAH-136" value="Print pet name, age, type, id, days in shelter" style="whiteSpace=wrap;html=1;" vertex="1" parent="1">
          <mxGeometry x="1470" y="300" width="120" height="60" as="geometry" />
        </mxCell>
        <mxCell id="tl55J5YGTpT1w8eIhRAH-139" style="edgeStyle=orthogonalEdgeStyle;rounded=0;orthogonalLoop=1;jettySize=auto;html=1;entryX=0.6;entryY=-0.007;entryDx=0;entryDy=0;entryPerimeter=0;" edge="1" parent="1" source="tl55J5YGTpT1w8eIhRAH-136" target="tl55J5YGTpT1w8eIhRAH-15">
          <mxGeometry relative="1" as="geometry">
            <Array as="points">
              <mxPoint x="1670" y="330" />
              <mxPoint x="1670" y="-290" />
              <mxPoint x="366" y="-290" />
            </Array>
          </mxGeometry>
        </mxCell>
      </root>
    </mxGraphModel>
  </diagram>
</mxfile>
